<svg version="1.1" id="Layer_1" xmlns="http://www.w3.org/2000/svg" xmlns:xlink="http://www.w3.org/1999/xlink" x="0px" y="0px" viewBox="0 0 120 120" style="enable-background:new 0 0 120 120;" xml:space="preserve"><style>.st0{fill:none;stroke:#D55453;stroke-width:2.5806;stroke-miterlimit:10}</style><circle class="st0" cx="60" cy="60" r="50"></circle><g><path class="st0" d="M77.6,68.5c0.4,0.2,0.7,0.4,1.1,0.4"></path><path class="st0" d="M77.7,39c0.3-0.2,0.7-0.3,1-0.3"></path><path class="st0" d="M73.9,48.3c0.6-4.7,2-8.3,3.7-9.3"></path><path class="st0" d="M78.7,38.7c2.8,0,5.1,6.8,5.1,15.1s-2.3,15.1-5.1,15.1"></path><path class="st0" d="M73.9,59.1c0.6,4.7,2,8.3,3.7,9.4"></path><path class="st0" d="M73.9,59.1c-0.2-1.7-0.3-3.4-0.3-5.3c0-1.9,0.1-3.7,0.3-5.4"></path><path class="st0" d="M73.9,59.1c2.8-0.2,4.8-2.5,4.8-5.4c0-2.9-2-5.2-4.8-5.4"></path><path class="st0" d="M77.7,39c0.7-0.2,1-0.3,1-0.3"></path><path class="st0" d="M77.7,39c-4.5,1.4-23,6.8-37.2,7c-0.7,0-1.4,0.3-1.9,0.8c-1,1-2.3,2.4-2.3,6.3c0,3.9,1.1,6,2.1,7.1 c0.5,0.5,1.2,0.8,1.9,0.8c1.1,0,2.3,0.1,3.5,0.2"></path><path class="st0" d="M48.7,61.8c-1.7-0.2-3.4-0.4-5.1-0.5"></path><path class="st0" d="M48.7,61.8c12.3,1.6,25.1,5.5,28.9,6.7"></path><path class="st0" d="M77.6,68.5c0.7,0.2,1.1,0.4,1.1,0.4"></path><path class="st0" d="M50.1,62c-3.4-7.8,0.1-16.7,0.1-16.7"></path><line class="st0" x1="48.7" y1="61.8" x2="48.3" y2="60.7"></line><path class="st0" d="M48.7,61.8L56,79c0.5,1.1-0.4,2.4-1.6,2.4h-2.9c-1.7,0-3.2-1.2-3.6-2.8l-4.3-17.2"></path><line class="st0" x1="43.5" y1="61" x2="43.6" y2="61.3"></line></g></svg>