<svg version="1.1" id="Layer_1" xmlns="http://www.w3.org/2000/svg" xmlns:xlink="http://www.w3.org/1999/xlink" x="0px" y="0px" viewBox="0 0 120 120" style="enable-background:new 0 0 120 120;" xml:space="preserve"><style>.st0{fill:none;stroke:#D55453;stroke-width:2.581;stroke-miterlimit:10}.st1{fill:none;stroke:#D55453;stroke-width:2.5806;stroke-linecap:round;stroke-linejoin:round;stroke-miterlimit:10}.st2{fill:none;stroke:#D55453;stroke-width:2.581;stroke-linecap:round;stroke-linejoin:round;stroke-miterlimit:10}</style><circle class="st0" cx="60" cy="60" r="50"></circle><circle class="st0" cx="60" cy="60" r="24.5"></circle><path class="st1" d="M74.3,61.9c0.2,1.7,0.4,3.6-1.8,6c-0.6,0.7-0.9,1.6-1.3,2.5c-0.8,2.2-1.6,4.4-5,4.4c-0.1-0.1-0.4-0.5-0.6-1.9 c-0.2-1.2-0.3-2.9-0.5-4.6c-0.2-2.6-0.4-5.6-1.1-8c-0.8-3.1-2.2-5-4.2-5.7c-0.9-0.3-1.8-0.4-2.8-0.4c-0.7,0-1.4,0.1-1.9,0.1 c-0.4,0.1-0.9,0.1-1.2,0.1l0,0c-0.6,0-1.3,0-2.1-1.9c-1.2-2.8-0.3-7.2,3.2-9.6c1.9-1.3,3.3-1.8,4.5-1.8c1,0,2,0.3,3.5,1.1 c1.7,0.9,3.1,1,4.1,1c0.4,0,0.7,0,1.1,0c0.3,0,0.6,0,0.8,0c0.6,0,1,0.1,1.6,0.4c1,0.7,1.5,2.2,2.1,3.8c0.8,2.4,1.8,5.1,4.7,6.1 c0.4,0.1,1.1,0.4,1.6,0.6c-0.4,0.4-1.1,1.1-1.8,1.7c-0.4,0.4-0.9,0.8-1.5,1.4C74,58.6,74.2,60.3,74.3,61.9L74.3,61.9z"></path><path class="st2" d="M41.4,61.2c-0.4-0.2-1.4-0.6-3.4-1c-0.4-0.1-0.9-0.2-1.2-0.2v0c0,0.1,0,0.2,0,0.3c0,3.8,0.7,7.5,1.9,10.9 c0.4-1.3,0.7-2.8,0.4-4c-0.4-1.7,0.7-3.3,1.6-4.6C40.8,62.1,41.2,61.5,41.4,61.2z"></path></svg>