<svg width="191" height="44" viewBox="0 0 191 44" fill="none" xmlns="http://www.w3.org/2000/svg">
<path fill-rule="evenodd" clip-rule="evenodd" d="M88.6 22.4C88.6 24.1 89.2 25.6 90.3 26.8C91.5 28 92.9 28.6 94.5 28.6C96.2 28.6 97.6 28 98.8 26.8C100 25.6 100.6 24.1 100.6 22.4C100.6 20.7 100 19.2 98.8 18C97.6 16.8 96.2 16.2 94.5 16.2C92.9 16.2 91.5 16.8 90.3 18C89.1 19.1 88.6 20.6 88.6 22.4ZM77.9 22.4C77.9 20.3 78.3 18.2 79.2 16.3C80 14.4 81.3 12.7 82.9 11.1C84.5 9.6 86.3 8.5 88.3 7.7C90.3 6.9 92.4 6.5 94.6 6.5C96.8 6.5 99 6.9 101 7.7C103 8.5 104.8 9.6 106.4 11.1C108 12.6 109.2 14.3 110 16.3C110.8 18.2 111.2 20.3 111.2 22.4C111.2 24.6 110.8 26.6 110 28.5C109.2 30.4 108 32.1 106.4 33.7C104.8 35.2 103.1 36.3 101 37.1C99 37.9 96.8 38.3 94.6 38.3C92.4 38.3 90.3 37.9 88.3 37.1C86.3 36.3 84.5 35.2 82.9 33.7C81.3 32.1 80.1 30.4 79.2 28.5C78.3 26.6 77.9 24.6 77.9 22.4Z" fill="#221D4C"/>
<path fill-rule="evenodd" clip-rule="evenodd" d="M111.9 43.8V24.3C111.9 22 112 20.2 112.2 19C112.4 17.8 112.8 16.6 113.3 15.6C114.6 12.9 116.7 10.7 119.3 9.10001C122 7.50001 125 6.70001 128.3 6.70001C133.1 6.70001 137 8.20001 140.2 11.2C143.3 14.2 144.9 18 144.9 22.6C144.9 27.2 143.3 31 140.2 34C137.1 37 133.1 38.5 128.3 38.5C127.7 38.5 126.9 38.5 126.2 38.4C125.4 38.3 124.6 38.2 123.8 38V28C124.8 28.3 125.6 28.5 126.3 28.6C126.9 28.7 127.5 28.8 127.9 28.8C129.9 28.8 131.4 28.2 132.6 27.1C133.7 26 134.3 24.5 134.3 22.6C134.3 20.7 133.8 19.3 132.7 18.2C131.6 17.1 130.1 16.5 128.3 16.5C126.3 16.5 124.8 17.1 123.7 18.3C122.6 19.5 122.1 21.2 122.1 23.4V43.9H111.9V43.8Z" fill="#221D4C"/>
<path fill-rule="evenodd" clip-rule="evenodd" d="M168.6 37.8V23.1C168.6 20.9 168.1 19.1 167 18C165.9 16.9 164.4 16.3 162.3 16.3C160.6 16.3 159.2 16.9 158.1 18C157 19.1 156.5 20.6 156.5 22.4C156.5 24.3 157.1 25.8 158.2 26.9C159.3 28 160.9 28.6 162.8 28.6C163.3 28.6 163.8 28.5 164.5 28.4C165.1 28.3 166 28.1 167 27.8V37.8C166.2 38 165.4 38.1 164.6 38.2C163.8 38.3 163.1 38.3 162.5 38.3C157.7 38.3 153.7 36.8 150.6 33.8C147.5 30.8 145.9 27 145.9 22.4C145.9 17.8 147.5 14 150.6 11C153.7 8 157.7 6.5 162.5 6.5C165.8 6.5 168.8 7.3 171.5 8.9C174.2 10.5 176.2 12.6 177.5 15.4C178 16.5 178.4 17.6 178.6 18.9C178.8 20.2 178.9 22.2 178.9 25V37.8H168.6Z" fill="#221D4C"/>
<path fill-rule="evenodd" clip-rule="evenodd" d="M180.4 38V4.6C180.4 4.5 180.4 4.5 180.4 4.4C180.4 2 182.8 0 185.7 0C188.6 0 191 2 191 4.4C191 4.6 191 4.7 191 4.9V38H180.4Z" fill="#221D4C"/>
<path fill-rule="evenodd" clip-rule="evenodd" d="M54.4 21C54.4 21.2 54.3 21.5 54.3 21.7C54.3 21.8 54.3 21.9 54.3 22C54.3 23.7 54.9 25.2 56 26.4C57 27.5 58.3 28.1 59.7 28.2C61.1 28.3 62.4 27.9 63.6 27C65 26 65.8 24.7 66.2 23C66.2 22.7 66.3 22.4 66.3 22H76.8C76.8 24.1 76.4 26.2 75.6 28.1C74.8 30 73.6 31.7 72 33.3C70.4 34.8 68.7 35.9 66.6 36.7C64.6 37.5 62.4 37.9 60.2 37.9C60 37.9 59.9 37.9 59.7 37.9C59.6 37.9 59.5 37.9 59.4 37.9H59.3C58.7 37.9 58 37.8 57.4 37.7C55.2 37.3 53.2 36.6 51.4 35.5C49.6 34.4 48 33 46.8 31.3C45.5 29.5 44.6 27.6 44.2 25.6C43.8 24 43.7 22.4 43.9 20.8C44 19.2 44.4 17.6 45.1 16.1C45.9 14.2 47.2 12.5 48.8 10.9C50.2 9.30001 52 8.10001 54 7.30001C56 6.50001 58.1 6.10001 60.3 6.10001C61 6.10001 61.6 6.10001 62.2 6.20001C62.3 6.20001 62.3 6.20001 62.4 6.20001H62.5H62.6C62.6 6.20001 62.6 6.20001 62.7 6.20001C62.9 6.20001 63 6.20001 63.2 6.30001C65.4 6.70001 67.4 7.40001 69.3 8.50001C71.1 9.60001 72.6 10.9 73.8 12.5C74.4 13.4 74.6 14.6 74.4 15.7C73.9 18.2 71.4 19.9 68.7 19.7L67.5 19.5C66.7 19.3 66 18.9 65.4 18.4C65.4 18.4 65.4 18.4 65.3 18.3C65.3 18.3 65.3 18.2 65.2 18.2C65.1 18 65 17.9 64.8 17.7C64.7 17.6 64.6 17.6 64.5 17.5C64.5 17.5 64.5 17.5 64.4 17.4C63.4 16.3 62.2 15.7 60.8 15.6C59.4 15.5 58.1 15.9 56.8 16.8C55.6 18 54.7 19.3 54.4 21Z" fill="#221D4C"/>
<path fill-rule="evenodd" clip-rule="evenodd" d="M4.8 5.70001H28C30.6 5.70001 32.8 7.90001 32.8 10.6V33.4C32.8 36.1 30.6 38.3 28 38.3H4.8C2.2 38.3 0 36.1 0 33.4V10.6C0 7.90001 2.2 5.70001 4.8 5.70001Z" fill="#221D4C"/>
<path fill-rule="evenodd" clip-rule="evenodd" d="M12 7.60001C15.2 7.60001 18.4 7.70001 21.7 7.70001C22 8.00001 22.5 8.10001 22.8 8.50001C23 8.80001 23.5 9.10001 23.5 9.50001C23.7 18.7 23.5 27.6 23.4 36.6C23.4 36.9 23.2 37.2 23.1 37.3C23 37.4 22.8 37.5 22.7 37.5L11.3 37.6C10.9 37.4 10.5 37.3 10.2 37.1L9 36.3L7.9 35.1L7.3 34C7.1 33.5 6.7 33 6.7 32.5C6.6 31.4 6.5 30.2 6.7 29.1L7 27.8L7.6 26.5C7.7 26 8 25.7 8.2 25.3C8.4 24.8 8.7 24.4 9 24L10.1 22.5C10.5 22.1 10.8 21.7 11.2 21.3L12 20.3L13 19L13.7 17.7L14.4 16.4L14.8 15.1L14.9 14.2C15 13.3 15.3 12.2 15 11.4C14.9 11.2 14.9 10.9 14.8 10.7C14.7 10.5 14.5 10.3 14.4 10C14.2 9.60001 13.9 9.10001 13.6 8.80001L12 7.60001Z" fill="white"/>
<path fill-rule="evenodd" clip-rule="evenodd" d="M14.2 8.5L21.1 8.6C21.4 8.8 21.8 8.8 22 9.1C22.2 9.4 22.5 9.7 22.5 10.1C22.5 10.7 22.5 11.3 22.5 11.9C22.5 12.2 22.5 12.5 22.5 12.8C22.5 13.1 22.4 13.4 22.4 13.7C22.4 13.8 22.4 13.9 22.3 14C22.2 14.1 22.1 14.2 22.1 14.3C21.9 14.5 21.8 14.7 21.6 14.8C21.3 15.2 20.9 15.5 20.6 15.9C19.9 16.6 19.3 17.3 18.6 18C17.3 19.4 15.9 20.8 14.6 22.2C14.4 22.4 14.2 22.4 14 22.4L13.3 22.5C13 22.5 12.8 22.5 12.5 22.4C12.3 22.3 12.1 22.2 12 22C11.9 21.7 12.1 21.5 12.2 21.2C13.1 19.6 14.2 18.1 15 16.7C15.2 16.4 15.3 16 15.4 15.7C15.5 15.4 15.6 14.9 15.7 14.5C15.8 14 15.9 13.7 15.9 13.1C15.9 12.5 16 11.8 15.8 11.2C15.7 10.9 15.7 10.7 15.6 10.4C15.5 10.1 15.4 9.8 15.2 9.6L14.7 8.9L14.2 8.5Z" fill="#221D4C"/>
<path fill-rule="evenodd" clip-rule="evenodd" d="M22.5 15.9C20.2 18.3 17.9 20.6 15.6 22.9C15.5 23 15.4 23.2 15.3 23.3L15.1 23.9C15.1 24.1 15 24.3 15.1 24.5C15.1 24.6 15.1 24.7 15.2 24.8C15.2 24.9 15.4 25.2 15.5 25.3C15.7 25.4 15.7 25.5 16 25.7C16.3 25.9 16.6 26.1 16.9 26.3C16.9 29.6 17 32.9 17 36.1C17.1 36.2 17.1 36.4 17.2 36.5C17.3 36.6 17.4 36.7 17.6 36.8H19.8H22C22.2 36.7 22.4 36.7 22.5 36.5L22.7 36.1V15.9H22.5Z" fill="#221D4C"/>
<path fill-rule="evenodd" clip-rule="evenodd" d="M16.5 9.29999C16.7 9.29999 16.9 9.49999 16.9 9.69999C16.9 9.89999 16.7 10.1 16.5 10.1C16.3 10.1 16.1 9.89999 16.1 9.69999C16.1 9.49999 16.2 9.29999 16.5 9.29999Z" fill="white"/>
</svg>
