<svg version="1.1" id="Layer_1" xmlns="http://www.w3.org/2000/svg" xmlns:xlink="http://www.w3.org/1999/xlink" x="0px" y="0px" viewBox="0 0 120 120" style="enable-background:new 0 0 120 120;" xml:space="preserve"><style>.st0{fill:none;stroke:#D55453;stroke-width:2.5806;stroke-miterlimit:10}</style><circle class="st0" cx="60" cy="60" r="50"></circle><g><line class="st0" x1="69.1" y1="46.9" x2="50.9" y2="46.9"></line><path class="st0" d="M69.1,46.9h12.7c1.4,0,2.6,1.2,2.6,2.6v29c0,1.4-1.2,2.6-2.6,2.6H38.2c-1.4,0-2.6-1.2-2.6-2.6v-8.1"></path><path class="st0" d="M50.9,46.9H38.2c-1.4,0-2.6,1.2-2.6,2.6v20.9"></path><path class="st0" d="M69.1,46.9v-4.6c0-1.4-1.2-2.6-2.6-2.6h-13c-1.4,0-2.6,1.2-2.6,2.6v4.6"></path><path class="st0" d="M48.4,70.4V68c0-0.1-0.1-0.2-0.2-0.2h-4.9c-0.1,0-0.2,0.1-0.2,0.2v2.4"></path><path class="st0" d="M48.4,70.4V73c0,0.1-0.1,0.2-0.2,0.2h-4.9c-0.1,0-0.2-0.1-0.2-0.2v-2.6"></path><path class="st0" d="M71.5,70.4V68c0-0.1,0.1-0.2,0.2-0.2h4.9c0.1,0,0.2,0.1,0.2,0.2v2.4"></path><path class="st0" d="M71.5,70.4V73c0,0.1,0.1,0.2,0.2,0.2h4.9c0.1,0,0.2-0.1,0.2-0.2v-2.6"></path><line class="st0" x1="43.1" y1="70.4" x2="35.6" y2="70.4"></line><line class="st0" x1="84.3" y1="70.4" x2="76.9" y2="70.4"></line><line class="st0" x1="71.5" y1="70.4" x2="48.4" y2="70.4"></line></g></svg>