<svg version="1.1" id="Layer_1" xmlns="http://www.w3.org/2000/svg" xmlns:xlink="http://www.w3.org/1999/xlink" x="0px" y="0px" viewBox="0 0 120 120" style="enable-background:new 0 0 120 120;" xml:space="preserve"><style>.st0{fill:none;stroke:#D55453;stroke-width:2.5806;stroke-miterlimit:10}</style><circle class="st0" cx="60" cy="60" r="50"></circle><path class="st0" d="M82.1,84.5H38.2c-1.4,0-2.6-1.2-2.6-2.6V38c0-1.4,1.2-2.6,2.6-2.6h43.9c1.4,0,2.6,1.2,2.6,2.6v43.9 C84.7,83.3,83.5,84.5,82.1,84.5z"></path><g><path class="st0" d="M51.9,76.3h-5.2c0,0-0.1,0-0.1-0.1V51.8c0,0,0-0.1,0.1-0.1h5.2c0,0,0.1,0,0.1,0.1L51.9,76.3 C51.9,76.2,51.9,76.3,51.9,76.3z"></path><path class="st0" d="M73.6,76.3h-5.2c0,0-0.1,0-0.1-0.1V62.6c0,0,0-0.1,0.1-0.1h5.2c0,0,0.1,0,0.1,0.1L73.6,76.3 C73.7,76.2,73.6,76.3,73.6,76.3z"></path><path class="st0" d="M62.7,76.3h-5.1c0,0-0.1,0-0.1-0.1V43.8c0,0,0-0.1,0.1-0.1h5.1c0,0,0.1,0,0.1,0.1L62.7,76.3 C62.8,76.2,62.8,76.3,62.7,76.3z"></path></g></svg>